<?xml version="1.0" standalone="no"?>
<!DOCTYPE svg PUBLIC "-//W3C//DTD SVG 20010904//EN"
 "http://www.w3.org/TR/2001/REC-SVG-20010904/DTD/svg10.dtd">
<svg version="1.0" xmlns="http://www.w3.org/2000/svg"
 width="49.000000pt" height="49.000000pt" viewBox="0 0 49.000000 49.000000"
 preserveAspectRatio="xMidYMid meet">

<g transform="translate(0.000000,49.000000) scale(0.100000,-0.100000)"
fill="#000000" stroke="none">
<path d="M72 457 c-27 -12 -39 -53 -23 -79 9 -15 8 -20 -6 -25 -24 -9 -33 -23
-33 -55 l0 -28 85 0 85 0 0 30 c0 20 -8 35 -25 46 -19 12 -22 19 -14 32 7 12
7 25 0 44 -13 35 -39 49 -69 35z m61 -40 c7 -22 6 -33 -7 -45 -14 -15 -13 -17
14 -28 22 -10 30 -20 30 -39 0 -25 -1 -25 -75 -25 -74 0 -75 1 -75 25 0 17 8
29 25 37 24 11 35 38 15 38 -14 0 -12 44 2 58 22 22 60 10 71 -21z"/>
<path d="M362 454 c-24 -17 -37 -61 -22 -79 8 -9 4 -17 -15 -29 -17 -11 -25
-25 -25 -46 l0 -30 85 0 85 0 0 28 c0 32 -9 46 -33 55 -14 5 -15 10 -6 25 29
46 -26 106 -69 76z m56 -16 c15 -15 16 -58 2 -58 -20 0 -9 -27 15 -38 17 -8
25 -20 25 -37 0 -24 -1 -25 -75 -25 -74 0 -75 0 -75 25 0 19 8 29 31 39 26 11
28 14 15 26 -19 15 -19 20 -6 54 10 28 47 35 68 14z"/>
<path d="M197 412 c-9 -4 10 -7 43 -7 33 0 52 3 43 7 -10 3 -29 7 -43 7 -14 0
-33 -4 -43 -7z"/>
<path d="M77 215 c5 -29 48 -95 60 -95 3 0 -1 8 -10 18 -9 9 -25 37 -36 62
-16 34 -19 38 -14 15z"/>
<path d="M390 206 c-6 -19 -20 -47 -31 -63 -15 -20 -12 -19 9 5 17 19 32 46
35 60 8 40 1 38 -13 -2z"/>
<path d="M205 210 c-13 -14 -16 -29 -12 -54 4 -27 1 -37 -14 -48 -11 -7 -21
-26 -22 -43 l-2 -30 85 0 85 0 -3 30 c-2 17 -11 36 -22 43 -14 10 -17 21 -13
48 6 38 -17 74 -47 74 -9 0 -25 -9 -35 -20z m56 0 c20 -11 27 -64 9 -75 -17
-10 -11 -23 14 -29 15 -4 25 -15 28 -31 5 -25 5 -25 -72 -25 -77 0 -77 0 -72
25 3 16 13 27 28 31 25 6 31 19 14 29 -17 10 -11 63 8 74 21 13 20 13 43 1z"/>
</g>
</svg>
